<?xml version="1.0" encoding="UTF-8" standalone="no"?>
<!-- Created with Inkscape (http://www.inkscape.org/) -->

<svg
   width="793.70081"
   height="1122.5197"
   viewBox="0 0 793.70081 1122.5197"
   version="1.1"
   id="SVGRoot"
   sodipodi:docname="C:\Users\JOSETO~1\AppData\Local\Temp\ink_ext_XXXXXX.svgRJHQT1"
   xml:space="preserve"
   xmlns:inkscape="http://www.inkscape.org/namespaces/inkscape"
   xmlns:sodipodi="http://sodipodi.sourceforge.net/DTD/sodipodi-0.dtd"
   xmlns="http://www.w3.org/2000/svg"
   xmlns:svg="http://www.w3.org/2000/svg"><sodipodi:namedview
     id="namedview815"
     pagecolor="#ffffff"
     bordercolor="#000000"
     borderopacity="0.25"
     inkscape:showpageshadow="2"
     inkscape:pageopacity="0.0"
     inkscape:pagecheckerboard="0"
     inkscape:deskcolor="#d1d1d1"
     inkscape:document-units="px"
     showgrid="true"
     inkscape:zoom="0.25"
     inkscape:cx="188.5"
     inkscape:cy="188.5"
     inkscape:window-width="1920"
     inkscape:window-height="1017"
     inkscape:window-x="1912"
     inkscape:window-y="-8"
     inkscape:window-maximized="0"
     inkscape:current-layer="layer1"><inkscape:grid
       type="xygrid"
       id="grid821" /></sodipodi:namedview><defs
     id="defs810" /><g
     inkscape:label="Capa 1"
     inkscape:groupmode="layer"
     id="layer1"><g
       id="screen-cart-screen-cart"
       transform="matrix(0.09375081,0,0,0.09375081,2.6917051,2.3256168)">
	<circle
   id="screen-cart-label"
   fill="#ffb933"
   cx="505"
   cy="505"
   r="505" />
	<g
   id="screen-cart-screen-cart_1_">
		<g
   id="screen-cart-screen"
   transform="translate(0,-149.33205)">
			<g
   id="g893">
				<path
   fill="#ffffff"
   d="m 787.7998,578.1465 v 58.498 c 0,10.7812 -8.7285,19.5098 -19.5088,19.5098 H 241.71 c -10.7808,0 -19.5098,-8.7285 -19.5098,-19.5098 v -58.498"
   id="path889" />
				<path
   fill="#454545"
   d="M 768.291,666.2549 H 241.71 c -16.3291,0 -29.6099,-13.2862 -29.6099,-29.6104 v -58.498 c 0,-5.583 4.522,-10.1006 10.1001,-10.1006 5.5776,0 10.0996,4.5176 10.0996,10.1006 v 58.498 c 0,5.1885 4.2217,9.4102 9.4102,9.4102 h 526.581 c 5.1875,0 9.4092,-4.2217 9.4092,-9.4102 v -58.498 c 0,-5.583 4.5225,-10.1006 10.0996,-10.1006 5.5781,0 10.1006,4.5176 10.1006,10.1006 v 58.498 c 0,16.3242 -13.2813,29.6104 -29.6094,29.6104 z"
   id="path891" />
			</g>
			<g
   id="g899">
				<path
   fill="#3bafda"
   d="M 222.2002,578.1465 V 295.3457 c 0,-10.7803 8.729,-19.5093 19.5098,-19.5093 h 526.581 c 10.7803,0 19.5088,8.729 19.5088,19.5093 v 282.8008"
   id="path895" />
				<path
   fill="#454545"
   d="m 787.7998,588.2461 c -5.5771,0 -10.0996,-4.5176 -10.0996,-10.0996 V 295.3457 c 0,-5.1875 -4.2217,-9.4092 -9.4092,-9.4092 H 241.71 c -5.1885,0 -9.4102,4.2217 -9.4102,9.4092 v 282.8008 c 0,5.582 -4.522,10.0996 -10.0996,10.0996 -5.5781,0 -10.1001,-4.5176 -10.1001,-10.0996 V 295.3457 c 0,-16.3232 13.2808,-29.6094 29.6099,-29.6094 h 526.581 c 16.3281,0 29.6094,13.2862 29.6094,29.6094 v 282.8008 c 0,5.582 -4.5225,10.0996 -10.1006,10.0996 z"
   id="path897" />
			</g>
			<g
   id="g905">
				<rect
   x="436.7363"
   y="656.1543"
   fill="#ffffff"
   width="136.5274"
   height="78.019501"
   id="rect901" />
				<path
   fill="#454545"
   d="M 573.2637,744.2734 H 436.7363 c -5.5776,0 -10.1001,-4.5175 -10.1001,-10.0995 v -78.0195 c 0,-5.582 4.5225,-10.0996 10.1001,-10.0996 h 136.5274 c 5.5781,0 10.0996,4.5176 10.0996,10.0996 v 78.0195 c 0,5.582 -4.5215,10.0995 -10.0996,10.0995 z M 446.8364,724.0732 H 563.1641 V 666.2549 H 446.8364 Z"
   id="path903" />
			</g>
			<g
   id="g909">
				<path
   fill="#454545"
   d="M 787.7998,588.2461 H 222.2002 c -5.5781,0 -10.1001,-4.5176 -10.1001,-10.0996 0,-5.583 4.522,-10.1006 10.1001,-10.1006 h 565.5996 c 5.5781,0 10.1006,4.5176 10.1006,10.1006 0,5.582 -4.5225,10.0996 -10.1006,10.0996 z"
   id="path907" />
			</g>
			<g
   id="g913">
				<path
   fill="#454545"
   d="M 612.2832,744.2734 H 397.7173 c -5.5777,0 -10.1001,-4.5175 -10.1001,-10.0995 0,-5.583 4.5224,-10.1006 10.1001,-10.1006 h 214.5659 c 5.5772,0 10.0996,4.5176 10.0996,10.1006 0,5.582 -4.5224,10.0995 -10.0996,10.0995 z"
   id="path911" />
			</g>
			<path
   fill="#454545"
   d="m 514.7549,614.709 c 0,5.3857 -4.3794,9.7549 -9.7549,9.7549 -5.3853,0 -9.7549,-4.3692 -9.7549,-9.7549 0,-5.3848 4.3696,-9.7549 9.7549,-9.7549 5.3755,0 9.7549,4.3701 9.7549,9.7549 z"
   id="path915" />
		</g>
		<g
   id="screen-cart-cart"
   transform="translate(0,-149.33205)">
			<g
   id="g922">
				<polyline
   fill="#ffffff"
   points="426.2119,346.5166 613.5449,346.5166 589.1143,444.2617 426.2119,444.2617     "
   id="polyline918" />
				<polygon
   fill="#454545"
   points="416.1123,454.3613 416.1123,434.1621 581.2285,434.1621 600.6094,356.6167 416.1123,356.6167 416.1123,336.417 626.4814,336.417 597,454.3613 "
   id="polygon920" />
			</g>
			<g
   id="g926">
				<polygon
   fill="#454545"
   points="416.1123,486.9404 416.1123,324.0381 383.5239,324.0381 383.5239,303.8384 436.3125,303.8384 436.3125,466.7402 599.2139,466.7402 599.2139,486.9404 "
   id="polygon924" />
			</g>
			<path
   fill="#454545"
   d="m 442.4966,501.2715 c 13.5024,0 24.4409,10.9482 24.4409,24.4414 0,13.5029 -10.9385,24.4316 -24.4409,24.4316 -13.4932,0 -24.4312,-10.9287 -24.4312,-24.4316 0,-13.4932 10.938,-24.4414 24.4312,-24.4414 z"
   id="path928" />
			<path
   fill="#454545"
   d="m 572.8203,501.2715 c 13.502,0 24.4414,10.9482 24.4414,24.4414 0,13.5029 -10.9395,24.4316 -24.4414,24.4316 -13.4932,0 -24.4316,-10.9287 -24.4316,-24.4316 0,-13.4932 10.9384,-24.4414 24.4316,-24.4414 z"
   id="path930" />
			<g
   id="g934">
				<polygon
   fill="#454545"
   points="420.4619,423.6279 420.4619,403.4277 599.6289,403.4277 599.6289,423.6279 "
   id="polygon932" />
			</g>
			<g
   id="g938">
				<polygon
   fill="#454545"
   points="419.1401,389.9546 419.1401,369.7549 604.3135,369.7549 604.3135,389.9546 "
   id="polygon936" />
			</g>
		</g>
	</g>
</g><text
       xml:space="preserve"
       style="font-weight:bold;font-size:13.3333px;line-height:0px;font-family:'Century Gothic';-inkscape-font-specification:'Century Gothic Bold';fill:#280b0b;stroke-width:1.178"
       x="32.242779"
       y="67.804665"
       id="text986"><tspan
         sodipodi:role="line"
         id="tspan984"
         x="32.242779"
         y="67.804665">Bazar </tspan></text><text
       xml:space="preserve"
       style="font-weight:bold;font-size:13.3333px;line-height:0px;font-family:'Century Gothic';-inkscape-font-specification:'Century Gothic Bold';fill:#280b0b;stroke-width:1.178"
       x="13.930152"
       y="79.632484"
       id="text986-3"><tspan
         sodipodi:role="line"
         id="tspan984-1"
         x="13.930152"
         y="79.632484"
         dx="0 0 0 0 0 0 0 0 0 0 0 0.33528066"
         dy="0 0 0 0 0 0 0 0 0 0 0 0.16764033">Electrónico </tspan></text></g></svg>
